<svg xmlns="http://www.w3.org/2000/svg" width="30" height="31" viewBox="0 0 30 31" fill="none">
  <path fill-rule="evenodd" clip-rule="evenodd" d="M20.3299 11.8848C20.5054 12.0607 20.604 12.299 20.604 12.5475C20.604 12.7961 20.5054 13.0344 20.3299 13.2103L14.1306 19.4095C14.0436 19.4966 13.9402 19.5657 13.8264 19.6129C13.7127 19.66 13.5907 19.6843 13.4676 19.6843C13.3444 19.6843 13.2225 19.66 13.1087 19.6129C12.9949 19.5657 12.8916 19.4966 12.8045 19.4095L9.67043 16.2753C9.5813 16.1887 9.51027 16.0853 9.46147 15.971C9.41267 15.8567 9.38709 15.7339 9.3862 15.6096C9.3853 15.4854 9.40913 15.3622 9.45628 15.2472C9.50343 15.1322 9.57297 15.0278 9.66085 14.9399C9.74873 14.852 9.8532 14.7825 9.96819 14.7354C10.0832 14.6883 10.2064 14.6645 10.3306 14.6654C10.4549 14.6663 10.5778 14.692 10.692 14.7408C10.8063 14.7896 10.9097 14.8607 10.9963 14.9498L13.4678 17.4207L19.0039 11.8847C19.1797 11.7089 19.4182 11.6102 19.6668 11.6102C19.9154 11.6102 20.1539 11.7089 20.3297 11.8847L20.3299 11.8848ZM15 28.7721C22.2369 28.7721 28.125 22.8839 28.125 15.6471C28.125 8.4103 22.237 2.52209 15 2.52209C7.76297 2.52209 1.875 8.4103 1.875 15.6471C1.875 22.8839 7.76326 28.7721 15 28.7721ZM15 0.647095C6.72891 0.647095 0 7.37612 0 15.6471C0 23.9181 6.72891 30.6471 15 30.6471C23.2711 30.6471 30 23.9182 30 15.6471C30 7.376 23.2711 0.647095 15 0.647095Z" fill="#0E773F"/>
</svg>