<svg xmlns="http://www.w3.org/2000/svg" width="38" height="44" viewBox="0 0 38 44" fill="none">
  <g filter="url(#filter0_d_4_20)">
    <path d="M29.1471 10.5882L33.6471 4.58824C33.8437 4.32605 33.9634 4.0143 33.9929 3.68789C34.0223 3.36149 33.9603 3.03334 33.8137 2.74021C33.6671 2.44708 33.4418 2.20056 33.1631 2.02826C32.8843 1.85597 32.563 1.76471 32.2353 1.76471H11.0588C11.0588 1.29668 10.8729 0.847817 10.542 0.51687C10.211 0.185924 9.76215 0 9.29412 0C8.82609 0 8.37723 0.185924 8.04628 0.51687C7.71534 0.847817 7.52941 1.29668 7.52941 1.76471V31.7647H5.76471C5.29668 31.7647 4.84782 31.9506 4.51687 32.2816C4.18592 32.6125 4 33.0614 4 33.5294C4 33.9974 4.18592 34.4463 4.51687 34.7772C4.84782 35.1082 5.29668 35.2941 5.76471 35.2941H12.8235C13.2916 35.2941 13.7404 35.1082 14.0714 34.7772C14.4023 34.4463 14.5882 33.9974 14.5882 33.5294C14.5882 33.0614 14.4023 32.6125 14.0714 32.2816C13.7404 31.9506 13.2916 31.7647 12.8235 31.7647H11.0588V19.4118H32.2353C32.563 19.4118 32.8843 19.3205 33.1631 19.1482C33.4418 18.9759 33.6671 18.7294 33.8137 18.4363C33.9603 18.1431 34.0223 17.815 33.9929 17.4886C33.9634 17.1622 33.8437 16.8504 33.6471 16.5882L29.1471 10.5882Z" fill="#0E773F"/>
  </g>
  <defs>
    <filter id="filter0_d_4_20" x="0" y="0" width="38" height="43.2941" filterUnits="userSpaceOnUse" color-interpolation-filters="sRGB">
      <feFlood flood-opacity="0" result="BackgroundImageFix"/>
      <feColorMatrix in="SourceAlpha" type="matrix" values="0 0 0 0 0 0 0 0 0 0 0 0 0 0 0 0 0 0 127 0" result="hardAlpha"/>
      <feOffset dy="4"/>
      <feGaussianBlur stdDeviation="2"/>
      <feComposite in2="hardAlpha" operator="out"/>
      <feColorMatrix type="matrix" values="0 0 0 0 0 0 0 0 0 0 0 0 0 0 0 0 0 0 0.25 0"/>
      <feBlend mode="normal" in2="BackgroundImageFix" result="effect1_dropShadow_4_20"/>
      <feBlend mode="normal" in="SourceGraphic" in2="effect1_dropShadow_4_20" result="shape"/>
    </filter>
  </defs>
</svg>