<svg xmlns="http://www.w3.org/2000/svg" width="30" height="31" viewBox="0 0 30 31" fill="none">
  <g clip-path="url(#clip0_4_27)">
    <path d="M10.3589 0.564209H3.46922C1.55631 0.564209 0 2.12912 0 4.05259V10.9803C0 12.9038 1.55631 14.4687 3.46922 14.4687H10.3589C12.2718 14.4687 13.8281 12.9038 13.8281 10.9803V4.05259C13.8281 2.12912 12.2718 0.564209 10.3589 0.564209ZM11.4844 10.9803C11.4844 11.6043 10.9795 12.112 10.3589 12.112H3.46922C2.84865 12.112 2.34375 11.6043 2.34375 10.9803V4.05259C2.34375 3.4286 2.84865 2.92091 3.46922 2.92091H10.3589C10.9795 2.92091 11.4844 3.4286 11.4844 4.05259V10.9803ZM26.4844 0.564209H19.6875C17.749 0.564209 16.1719 2.15003 16.1719 4.09926V10.9337C16.1719 12.8829 17.749 14.4687 19.6875 14.4687H26.4844C28.4229 14.4687 30 12.8829 30 10.9337V4.09926C30 2.15003 28.4229 0.564209 26.4844 0.564209ZM27.6562 10.9337C27.6562 11.5834 27.1305 12.112 26.4844 12.112H19.6875C19.0413 12.112 18.5156 11.5834 18.5156 10.9337V4.09926C18.5156 3.44952 19.0413 2.92091 19.6875 2.92091H26.4844C27.1305 2.92091 27.6562 3.44952 27.6562 4.09926V10.9337ZM10.3589 16.8254H3.46922C1.55631 16.8254 0 18.3903 0 20.3138V27.2416C0 29.165 1.55631 30.73 3.46922 30.73H10.3589C12.2718 30.73 13.8281 29.165 13.8281 27.2416V20.3138C13.8281 18.3903 12.2718 16.8254 10.3589 16.8254ZM11.4844 27.2416C11.4844 27.8656 10.9795 28.3733 10.3589 28.3733H3.46922C2.84865 28.3733 2.34375 27.8656 2.34375 27.2416V20.3138C2.34375 19.6898 2.84865 19.1821 3.46922 19.1821H10.3589C10.9795 19.1821 11.4844 19.6898 11.4844 20.3138V27.2416ZM26.4844 16.8254H19.6875C17.749 16.8254 16.1719 18.4113 16.1719 20.3605V27.1949C16.1719 29.1441 17.749 30.73 19.6875 30.73H26.4844C28.4229 30.73 30 29.1441 30 27.1949V20.3605C30 18.4113 28.4229 16.8254 26.4844 16.8254ZM27.6562 27.1949C27.6562 27.8446 27.1305 28.3733 26.4844 28.3733H19.6875C19.0413 28.3733 18.5156 27.8446 18.5156 27.1949V20.3605C18.5156 19.7107 19.0413 19.1821 19.6875 19.1821H26.4844C27.1305 19.1821 27.6562 19.7107 27.6562 20.3605V27.1949Z" fill="#0E773F"/>
  </g>
  <defs>
    <clipPath id="clip0_4_27">
      <rect width="30" height="30.1657" fill="white" transform="translate(0 0.564209)"/>
    </clipPath>
  </defs>
</svg>