<svg xmlns="http://www.w3.org/2000/svg" width="30" height="31" viewBox="0 0 30 31" fill="none">
  <g clip-path="url(#clip0_4_36)">
    <path fill-rule="evenodd" clip-rule="evenodd" d="M12.275 0.894595C13.1575 0.732095 14.0688 0.647095 15 0.647095C23.2838 0.647095 30 7.36335 30 15.6471C30 23.9308 23.2838 30.6471 15 30.6471C14.07 30.6471 13.1587 30.5621 12.275 30.3996C12.1111 30.3727 11.9543 30.3134 11.8136 30.2251C11.6729 30.1369 11.5512 30.0215 11.4556 29.8857C11.3601 29.75 11.2925 29.5965 11.2568 29.4343C11.2212 29.2721 11.2183 29.1045 11.2482 28.9411C11.2781 28.7778 11.3402 28.622 11.431 28.483C11.5217 28.3439 11.6393 28.2243 11.7768 28.1312C11.9143 28.0381 12.0689 27.9733 12.2317 27.9406C12.3945 27.9079 12.5622 27.908 12.725 27.9408C13.4625 28.0758 14.2225 28.1471 15 28.1471C21.9037 28.1471 27.5 22.5508 27.5 15.6471C27.5 8.74335 21.9037 3.14709 15 3.14709C14.2225 3.14709 13.4625 3.21834 12.725 3.35334C12.5622 3.38619 12.3945 3.38628 12.2317 3.3536C12.0689 3.32091 11.9143 3.25612 11.7768 3.163C11.6393 3.06988 11.5217 2.95029 11.431 2.81123C11.3402 2.67217 11.2781 2.51642 11.2482 2.35308C11.2183 2.18974 11.2212 2.02207 11.2568 1.85988C11.2925 1.69769 11.3601 1.54423 11.4556 1.40845C11.5512 1.27266 11.6729 1.15729 11.8136 1.06907C11.9543 0.980839 12.1111 0.921528 12.275 0.894595ZM9.20625 3.10959C9.28857 3.25173 9.34207 3.4087 9.36369 3.57152C9.38531 3.73434 9.37463 3.89983 9.33226 4.05853C9.28989 4.21722 9.21665 4.36601 9.11674 4.49638C9.01684 4.62676 8.89221 4.73616 8.75 4.81834C7.04501 5.80584 5.59604 7.18031 4.52 8.83084C4.33866 9.10866 4.05438 9.30306 3.72971 9.37127C3.40504 9.43949 3.06656 9.37594 2.78875 9.19459C2.51094 9.01325 2.31654 8.72898 2.24832 8.4043C2.1801 8.07963 2.24366 7.74116 2.425 7.46334C3.71632 5.48476 5.45476 3.83752 7.5 2.65459C7.64214 2.57228 7.7991 2.51878 7.96193 2.49715C8.12475 2.47553 8.29024 2.48621 8.44893 2.52859C8.60763 2.57096 8.75641 2.64419 8.88679 2.7441C9.01716 2.84401 9.12657 2.96863 9.20875 3.11084L9.20625 3.10959ZM22.1062 10.9871C22.2256 11.0998 22.3216 11.235 22.3887 11.3849C22.4559 11.5347 22.4928 11.6963 22.4974 11.8605C22.5021 12.0246 22.4743 12.1881 22.4158 12.3415C22.3573 12.4949 22.2691 12.6353 22.1562 12.7546L14.1163 21.2621C13.929 21.4622 13.7028 21.6216 13.4514 21.7307C13.2 21.8397 12.929 21.896 12.655 21.896C12.381 21.896 12.11 21.8397 11.8586 21.7307C11.6072 21.6216 11.381 21.4622 11.1938 21.2621L7.84 17.7146C7.72723 17.5953 7.63906 17.4549 7.58054 17.3015C7.52203 17.1481 7.4943 16.9846 7.49894 16.8205C7.50832 16.489 7.64898 16.1748 7.89 15.9471C8.13101 15.7193 8.45263 15.5967 8.78411 15.606C9.11558 15.6154 9.42974 15.7561 9.6575 15.9971L12.655 19.1683L20.34 11.0371C20.4527 10.9177 20.5879 10.8217 20.7378 10.7546C20.8876 10.6875 21.0493 10.6505 21.2134 10.6459C21.3775 10.6413 21.541 10.669 21.6944 10.7275C21.8478 10.7861 21.9882 10.8743 22.1075 10.9871H22.1062ZM1.89 11.3046C2.21265 11.3798 2.49223 11.5801 2.66732 11.8613C2.8424 12.1426 2.89867 12.4819 2.82375 12.8046C2.6125 13.7171 2.5 14.6671 2.5 15.6471C2.5 16.6271 2.6125 17.5771 2.825 18.4896C2.89992 18.8127 2.84344 19.1523 2.66798 19.4337C2.49251 19.7151 2.21244 19.9153 1.88937 19.9902C1.56631 20.0651 1.22671 20.0087 0.945288 19.8332C0.663866 19.6577 0.463674 19.3777 0.38875 19.0546C0.135 17.9596 0 16.8171 0 15.6471C0 14.4771 0.135 13.3346 0.38875 12.2396C0.463711 11.9167 0.663845 11.6368 0.945139 11.4615C1.22643 11.2861 1.5671 11.2297 1.89 11.3046ZM2.79 22.0996C2.9276 22.0097 3.08156 21.9479 3.24308 21.9176C3.4046 21.8873 3.57051 21.8892 3.73131 21.9231C3.89211 21.957 4.04465 22.0223 4.1802 22.1152C4.31574 22.2081 4.43164 22.3268 4.52125 22.4646C5.59709 24.1145 7.04561 25.4885 8.75 26.4758C9.03693 26.6419 9.24613 26.9152 9.33158 27.2355C9.41702 27.5559 9.37172 27.897 9.20563 28.184C9.03953 28.4709 8.76626 28.6801 8.44593 28.7655C8.12559 28.851 7.78443 28.8057 7.4975 28.6396C5.45303 27.456 3.71546 25.8083 2.425 23.8296C2.33534 23.692 2.27366 23.5382 2.24349 23.3768C2.21331 23.2154 2.21522 23.0496 2.24911 22.889C2.28301 22.7283 2.34822 22.5759 2.44103 22.4405C2.53384 22.305 2.65242 22.1892 2.79 22.0996Z" fill="#0E773F"/>
  </g>
  <defs>
    <clipPath id="clip0_4_36">
      <rect width="30" height="30" fill="white" transform="translate(0 0.647095)"/>
    </clipPath>
  </defs>
</svg>