<svg xmlns="http://www.w3.org/2000/svg" width="30" height="23" viewBox="0 0 30 23" fill="none">
  <path d="M28.5033 22.5402H8.4426C8.24602 22.5402 8.05137 22.5015 7.86975 22.4262C7.68814 22.351 7.52312 22.2407 7.38412 22.1017C7.24511 21.9627 7.13485 21.7977 7.05962 21.6161C6.9844 21.4345 6.94568 21.2398 6.94568 21.0433C6.94568 20.8467 6.9844 20.652 7.05962 20.4704C7.13485 20.2888 7.24511 20.1238 7.38412 19.9848C7.52312 19.8458 7.68814 19.7355 7.86975 19.6603C8.05137 19.5851 8.24602 19.5463 8.4426 19.5463H28.5028C28.8998 19.5463 29.2806 19.7039 29.5614 19.9846C29.8421 20.2653 29.9999 20.646 30 21.043C30 21.44 29.8424 21.8208 29.5617 22.1016C29.281 22.3823 28.9003 22.5401 28.5033 22.5402ZM28.5033 13.144H8.4426C8.04559 13.144 7.66484 12.9863 7.38412 12.7056C7.10339 12.4249 6.94568 12.0441 6.94568 11.6471C6.94568 11.2501 7.10339 10.8694 7.38412 10.5886C7.66484 10.3079 8.04559 10.1502 8.4426 10.1502H28.5028C28.8998 10.1501 29.2806 10.3078 29.5614 10.5884C29.8421 10.8691 29.9999 11.2499 30 11.6469C30 12.0439 29.8424 12.4246 29.5617 12.7054C29.281 12.9862 28.9003 13.144 28.5033 13.144ZM28.5033 3.74787H8.4426C8.24602 3.74787 8.05137 3.70915 7.86975 3.63392C7.68814 3.55869 7.52312 3.44843 7.38412 3.30943C7.24511 3.17043 7.13485 3.00541 7.05962 2.82379C6.9844 2.64218 6.94568 2.44753 6.94568 2.25095C6.94568 2.05437 6.9844 1.85972 7.05962 1.6781C7.13485 1.49649 7.24511 1.33147 7.38412 1.19247C7.52312 1.05346 7.68814 0.943202 7.86975 0.867974C8.05137 0.792747 8.24602 0.754028 8.4426 0.754028H28.5028C28.8998 0.753962 29.2806 0.91161 29.5614 1.19229C29.8421 1.47297 29.9999 1.85369 30 2.2507C30 2.64771 29.8424 3.02848 29.5617 3.30925C29.281 3.59003 28.9003 3.7478 28.5033 3.74787Z" fill="#0E773F"/>
  <path d="M2.01036 4.37705C3.12065 4.37705 4.02072 3.47698 4.02072 2.36669C4.02072 1.25639 3.12065 0.356323 2.01036 0.356323C0.900069 0.356323 0 1.25639 0 2.36669C0 3.47698 0.900069 4.37705 2.01036 4.37705Z" fill="#0E773F"/>
  <path d="M2.01036 13.6574C3.12065 13.6574 4.02072 12.7574 4.02072 11.6471C4.02072 10.5368 3.12065 9.63672 2.01036 9.63672C0.900069 9.63672 0 10.5368 0 11.6471C0 12.7574 0.900069 13.6574 2.01036 13.6574Z" fill="#0E773F"/>
  <path d="M2.01036 22.9378C3.12065 22.9378 4.02072 22.0378 4.02072 20.9275C4.02072 19.8172 3.12065 18.9171 2.01036 18.9171C0.900069 18.9171 0 19.8172 0 20.9275C0 22.0378 0.900069 22.9378 2.01036 22.9378Z" fill="#0E773F"/>
</svg>